<?xml version="1.0" standalone="no"?>
<!DOCTYPE svg PUBLIC "-//W3C//DTD SVG 20010904//EN"
 "http://www.w3.org/TR/2001/REC-SVG-20010904/DTD/svg10.dtd">
<svg version="1.0" xmlns="http://www.w3.org/2000/svg"
 width="500.000000pt" height="500.000000pt" viewBox="0 0 500.000000 500.000000"
 preserveAspectRatio="xMidYMid meet">

<g transform="translate(0.000000,500.000000) scale(0.100000,-0.100000)"
fill="#000000" stroke="none">
<path d="M2320 4700 c-441 -57 -863 -276 -1164 -603 -253 -275 -404 -566 -483
-932 -26 -123 -27 -144 -27 -380 0 -233 2 -259 27 -377 67 -315 196 -589 401
-848 62 -78 237 -245 331 -316 176 -133 386 -240 596 -304 468 -141 950 -107
1379 96 271 129 497 305 680 529 487 597 573 1425 218 2105 -98 189 -177 298
-333 458 -285 296 -611 470 -1042 558 -90 18 -478 28 -583 14z m213 -132 c4
-18 7 -122 8 -230 3 -191 2 -198 -19 -221 -64 -68 33 -172 98 -107 34 34 19
120 -21 120 -5 0 -9 61 -9 140 l0 140 50 0 50 0 0 -195 0 -195 -25 0 c-25 0
-25 -1 -25 -80 l0 -80 85 0 85 0 0 80 0 80 -35 0 -35 0 -2 218 -3 217 -75 5
-75 5 -3 69 -3 69 111 -5 c61 -3 114 -9 118 -13 4 -3 8 -80 10 -171 3 -154 2
-165 -17 -186 -43 -46 -9 -118 55 -118 33 0 74 36 74 66 0 25 -23 64 -42 69
-16 6 -18 18 -18 106 l0 99 50 0 50 0 0 -87 c0 -94 8 -120 34 -110 13 5 16 25
16 115 0 71 -4 112 -12 120 -7 7 -40 12 -80 12 l-68 0 0 40 c0 26 5 40 13 40
35 0 267 -64 349 -96 342 -135 646 -376 846 -671 23 -35 45 -68 47 -75 4 -10
-66 -12 -348 -10 -315 2 -356 1 -367 -14 -26 -30 0 -49 74 -52 l66 -3 0 -404
0 -405 -345 0 -345 0 0 405 0 405 79 0 c71 0 80 2 86 20 16 50 10 50 -389 48
l-371 -3 -3 -24 c-5 -33 12 -41 96 -41 49 0 74 -4 77 -12 3 -7 4 -242 3 -523
l-3 -510 -385 558 -385 557 -305 -2 -305 -3 -3 -24 c-5 -34 12 -41 101 -41
l77 0 -2 -852 -3 -853 -92 -3 c-101 -3 -123 -14 -103 -51 10 -20 18 -21 269
-21 274 0 288 2 279 47 -3 16 -19 19 -138 23 l-135 5 -3 783 c-1 430 1 782 5
782 7 -1 110 -147 408 -580 44 -63 215 -310 380 -548 165 -237 308 -445 318
-462 l19 -30 -79 0 c-48 0 -84 -5 -91 -12 -18 -18 -14 -46 7 -58 13 -6 154
-10 390 -10 323 0 372 2 385 16 42 42 6 64 -103 64 l-81 0 0 440 0 440 345 0
345 0 0 -440 0 -440 -83 0 c-85 0 -107 -8 -107 -42 0 -35 31 -38 392 -38 194
0 357 0 361 0 26 -1 -171 -247 -281 -351 -164 -157 -331 -267 -542 -358 -124
-53 -362 -122 -376 -109 -4 4 -7 24 -8 45 l-1 38 53 3 52 3 0 130 c0 108 2
129 15 129 11 0 15 13 15 54 0 30 -3 57 -7 59 -5 3 -32 2 -60 0 l-53 -6 0 -53
c0 -47 2 -54 20 -54 19 0 20 -7 20 -110 l0 -110 -28 0 -29 0 -6 137 c-12 230
-10 266 13 286 13 11 20 29 20 51 0 59 -76 99 -114 60 -43 -42 -43 -83 -1
-119 23 -20 24 -25 35 -289 6 -147 10 -270 8 -271 -5 -5 -249 -21 -254 -16 -2
2 -4 37 -4 78 l0 73 49 0 c62 0 81 7 81 31 0 17 -8 19 -64 19 l-64 0 -7 150
-7 151 26 24 c49 45 30 114 -36 130 -22 6 -33 1 -59 -24 -35 -36 -34 -68 4
-109 18 -19 21 -38 25 -137 l5 -115 -40 0 -40 0 -6 88 c-4 53 -3 88 3 90 6 2
10 26 10 53 l0 49 -40 0 -40 0 0 -50 c0 -27 4 -50 10 -50 5 0 11 -47 12 -107
l3 -108 61 -3 61 -3 6 -112 c3 -62 4 -114 2 -117 -6 -9 -250 11 -260 21 -6 6
-12 136 -15 327 l-6 317 29 34 c22 26 27 39 22 60 -10 40 -34 61 -72 61 -69 0
-96 -71 -48 -128 24 -29 25 -36 25 -161 l0 -132 -52 3 -53 3 -3 102 c-2 66 1
103 8 103 6 0 10 24 10 55 l0 55 -50 0 -50 0 0 -50 c0 -32 5 -52 15 -57 10 -6
16 -39 21 -131 l7 -122 74 0 73 0 0 -52 c0 -29 3 -104 7 -167 l6 -114 -39 6
c-117 19 -343 99 -475 170 -190 100 -414 281 -543 437 -201 242 -336 525 -398
832 -31 154 -33 508 -4 663 64 345 199 618 445 902 230 265 590 475 944 552
53 12 101 21 107 21 6 0 10 -26 10 -60 l0 -60 -60 0 c-41 0 -60 -4 -61 -12 0
-7 0 -66 1 -130 1 -100 -1 -118 -14 -118 -13 0 -16 -12 -16 -55 l0 -55 55 0
55 0 0 55 c0 42 -3 55 -15 55 -12 0 -15 18 -15 105 l0 105 38 0 39 0 6 -202
c5 -189 5 -203 -14 -226 -23 -30 -25 -79 -2 -104 20 -23 80 -24 105 -1 28 25
24 87 -7 110 -14 10 -27 29 -29 43 -3 14 -7 145 -11 292 l-7 266 29 5 c15 2
60 5 99 6 l72 1 5 -32z m347 -388 c0 -19 -25 -34 -41 -24 -16 9 -10 42 9 47
23 5 32 -1 32 -23z m-660 -35 c0 -33 -2 -35 -35 -35 -33 0 -35 2 -35 35 0 33
2 35 35 35 33 0 35 -2 35 -35z m375 -80 c0 -22 -31 -33 -47 -17 -17 17 -1 44
24 40 15 -2 23 -10 23 -23z m175 -126 l0 -50 -47 3 -48 3 -3 48 -3 47 50 0 51
0 0 -51z m-421 7 c13 -16 4 -46 -14 -46 -7 0 -18 7 -25 15 -10 12 -10 18 0 30
15 19 24 19 39 1z m1856 -372 c248 -522 238 -1129 -26 -1633 -27 -51 -34 -59
-50 -51 -10 6 -49 10 -88 10 l-71 0 0 880 0 880 76 0 c69 0 76 2 81 21 6 21 7
21 21 3 8 -10 34 -60 57 -110z m-2183 -507 l408 -589 0 -219 c0 -120 -2 -219
-4 -219 -3 0 -33 42 -69 93 -124 179 -751 1083 -813 1172 -35 50 -104 150
-154 223 l-91 133 158 -3 158 -3 407 -588z m748 -287 l0 -880 -115 0 -115 0 0
880 0 880 115 0 115 0 0 -880z m1120 0 l0 -880 -135 0 -135 0 0 873 c0 481 3
877 7 880 3 4 64 7 135 7 l128 0 0 -880z m-1630 -1045 c25 -30 -10 -61 -38
-33 -7 7 -8 17 -1 30 12 22 23 23 39 3z m-150 -98 c0 -29 -3 -33 -27 -32 -19
0 -29 6 -31 18 -6 30 6 47 33 47 22 0 25 -4 25 -33z m764 -23 c8 -21 -1 -34
-24 -34 -22 0 -34 15 -26 35 7 20 42 19 50 -1z m-294 -50 c11 -12 10 -18 -3
-32 -16 -15 -18 -15 -33 0 -19 18 -12 48 9 48 8 0 20 -7 27 -16z m-130 -94 c0
-23 -4 -30 -20 -30 -16 0 -20 7 -20 30 0 23 4 30 20 30 16 0 20 -7 20 -30z
m560 -65 c0 -34 -1 -35 -40 -35 -39 0 -40 1 -40 35 0 34 1 35 40 35 39 0 40
-1 40 -35z"/>
<path d="M2763 649 c-77 -14 -138 -70 -169 -156 -59 -166 77 -340 251 -319 60
7 116 28 135 50 17 21 14 20 -44 -9 -55 -28 -147 -34 -205 -14 l-31 11 0 199
0 200 37 16 c49 20 134 13 171 -14 15 -11 31 -34 37 -51 14 -50 25 -38 25 28
0 33 -4 60 -10 60 -5 0 -10 -11 -10 -25 l0 -26 -29 22 c-36 26 -100 38 -158
28z"/>
<path d="M1585 639 c-17 -7 -16 -8 8 -8 l27 -1 0 -215 0 -215 -25 0 c-14 0
-25 -4 -25 -10 0 -6 28 -10 65 -10 37 0 65 4 65 10 0 6 -16 10 -35 10 l-35 0
0 196 c0 107 3 193 8 190 7 -4 41 -52 208 -294 47 -67 89 -120 95 -117 5 4 9
102 9 231 l0 224 27 0 c45 0 18 11 -36 14 -28 2 -54 -1 -57 -5 -3 -5 6 -9 20
-9 l26 0 0 -136 c0 -74 -4 -133 -8 -130 -4 3 -50 66 -101 140 -51 75 -98 137
-105 137 -47 6 -114 5 -131 -2z"/>
<path d="M2094 639 c-16 -4 -21 -7 -11 -8 16 -1 17 -18 17 -216 0 -208 -1
-215 -20 -215 -11 0 -20 -4 -20 -10 0 -6 38 -10 95 -10 57 0 95 4 95 10 0 6
-11 10 -25 10 l-26 0 3 108 3 107 85 0 85 0 3 -107 3 -108 -26 0 c-14 0 -25
-4 -25 -10 0 -6 38 -10 95 -10 57 0 95 4 95 10 0 6 -9 10 -20 10 -19 0 -20 7
-20 215 l0 215 23 2 c12 0 -9 4 -48 8 -38 3 -81 3 -95 -1 -24 -7 -24 -7 -2 -8
21 -1 22 -4 22 -101 l0 -101 -87 3 -88 3 -3 98 c-3 94 -2 97 19 97 12 0 19 3
16 6 -9 9 -106 11 -143 3z"/>
<path d="M3060 639 c-22 -4 -27 -7 -12 -8 l22 -1 0 -215 0 -215 -25 0 c-14 0
-25 -4 -25 -10 0 -6 28 -10 65 -10 37 0 65 4 65 10 0 6 -13 10 -30 10 l-30 0
1 193 0 192 32 -65 c18 -36 63 -130 100 -209 37 -79 70 -141 72 -139 3 3 39
94 81 204 41 109 77 200 80 203 2 2 4 -82 4 -187 0 -161 -2 -192 -14 -192 -8
0 -18 -5 -21 -10 -4 -6 27 -10 84 -10 54 0 91 4 91 10 0 6 -9 10 -20 10 -19 0
-20 7 -20 215 l0 215 23 0 c16 0 18 3 8 9 -14 9 -113 7 -129 -3 -5 -3 -35 -75
-67 -161 -32 -85 -62 -152 -66 -148 -4 5 -38 73 -74 153 -37 80 -71 149 -76
154 -11 12 -71 14 -119 5z"/>
</g>
</svg>
